<svg width="411" height="535" viewBox="0 0 411 535" fill="none" xmlns="http://www.w3.org/2000/svg">
<path d="M305.084 211.998C305.084 211.998 303.787 213.111 302.675 213.296C301.934 213.296 295.449 214.038 291.372 214.224C293.04 215.151 294.152 216.821 294.707 218.49C296.56 218.119 298.043 217.933 298.784 217.748C300.452 217.192 305.084 211.998 305.084 211.998Z" fill="#638AEA"/>
<path d="M294.708 219.974C294.152 219.974 293.596 219.603 293.411 219.047C292.855 217.563 291.928 216.264 290.631 215.522C290.075 215.151 289.89 214.595 290.075 214.039C290.261 213.482 290.817 213.111 291.372 212.926C294.893 212.74 300.637 212.184 302.49 211.998C303.046 211.998 303.973 211.442 304.158 211.071C304.714 210.514 305.455 210.7 306.011 211.256C306.567 211.813 306.567 212.555 306.011 213.111C304.899 214.41 301.008 218.676 298.97 219.232C298.414 219.418 296.931 219.603 295.264 219.974H294.708C294.708 219.974 294.893 219.974 294.708 219.974ZM294.708 215.522C295.078 216.079 295.449 216.45 295.634 217.006C296.931 216.821 298.043 216.635 298.414 216.45C298.784 216.264 299.525 215.708 300.267 214.966C298.599 215.151 296.561 215.337 294.708 215.522Z" fill="#333333"/>
<path d="M303.046 234.256L306.752 230.361C306.567 230.546 306.196 230.732 306.011 230.917C304.528 231.659 294.337 236.11 291.187 236.296C288.222 236.481 288.222 234.812 288.407 233.328C288.593 232.03 300.822 226.465 301.564 226.095C302.305 225.538 309.161 218.861 309.161 218.861C309.161 218.861 304.158 222.941 302.119 223.498C301.008 223.683 297.487 224.611 293.966 224.982C292.669 227.393 290.075 228.877 287.296 228.877C283.034 228.877 279.513 225.353 279.513 221.087C279.513 216.82 283.034 213.296 287.296 213.296C286.925 212.554 287.11 211.627 287.666 210.7C288.593 209.216 297.672 208.288 302.49 206.99C306.011 206.063 306.937 204.764 307.308 204.022C303.231 199.2 297.302 195.676 290.631 194.934C297.302 190.111 301.564 182.321 301.564 173.603C301.564 158.95 289.705 147.08 275.066 147.08C267.84 147.08 261.539 149.862 256.722 154.499C256.722 155.983 256.351 157.652 255.61 159.692C253.757 164.515 250.607 168.039 252.645 170.265C254.683 172.49 268.581 181.023 271.36 181.95C274.14 182.692 272.657 186.402 272.657 186.402C273.398 186.773 274.14 187.143 274.696 187.514C277.29 189.555 273.398 190.482 273.398 190.482C272.101 190.668 270.99 190.853 269.693 190.853L268.951 191.966H271.36C271.36 191.966 271.36 194.006 268.581 195.305C267.654 195.676 266.913 195.861 266.357 195.861L265.431 197.345C263.392 199.942 259.872 199.571 256.351 198.829C252.831 198.087 242.825 194.006 240.23 192.337C240.045 192.151 239.86 191.966 239.674 191.781L219.848 197.53L214.104 229.804L261.169 217.191C260.984 218.49 260.798 219.974 260.798 221.457C260.798 236.11 272.657 247.981 287.296 247.981C296.19 247.981 304.158 243.53 308.975 236.667C305.455 238.893 303.046 234.256 303.046 234.256ZM275.066 181.208C270.804 181.208 267.284 177.684 267.284 173.418C267.284 169.152 270.804 165.628 275.066 165.628C279.328 165.628 282.849 169.152 282.849 173.418C283.034 177.684 279.513 181.208 275.066 181.208Z" fill="#AE64E8"/>
<path d="M287.111 248.723C271.731 248.723 259.316 236.296 259.316 220.901C259.316 220.159 259.316 219.417 259.502 218.676L214.289 230.732C213.919 230.917 213.363 230.732 212.992 230.361C212.622 229.99 212.436 229.619 212.622 229.062L218.366 196.789C218.366 196.232 218.922 195.861 219.292 195.676L239.119 189.926C239.675 189.741 240.231 189.926 240.601 190.297C240.787 190.482 240.787 190.668 240.972 190.668C243.195 192.152 253.201 196.232 256.537 196.974C260.799 197.902 263.022 197.531 264.134 196.047L265.06 194.748C265.246 194.378 265.616 194.192 266.172 194.192C266.728 194.192 267.284 194.007 268.025 193.636C268.396 193.45 268.766 193.265 269.137 193.079H268.952C268.396 193.079 268.025 192.708 267.655 192.337C267.469 191.966 267.469 191.41 267.655 190.853L268.396 189.74C268.581 189.37 269.137 189.184 269.508 189.184C270.805 189.184 271.916 188.999 273.028 188.813C273.214 188.813 273.584 188.628 273.955 188.442L273.769 188.257C273.399 187.886 272.658 187.7 272.102 187.329C271.731 187.144 271.361 186.773 271.361 186.402C271.175 186.031 271.361 185.66 271.361 185.289C271.546 184.733 271.731 183.62 271.546 183.063C271.546 182.878 271.361 182.878 270.99 182.692C267.84 181.765 253.757 173.047 251.719 170.636C249.681 168.41 251.163 165.628 252.646 162.66C253.387 161.362 253.943 160.064 254.499 158.58C255.054 156.91 255.425 155.241 255.61 153.757C255.61 153.386 255.796 153.015 255.981 152.83C261.169 147.822 268.025 145.04 275.252 145.04C290.631 145.04 303.046 157.467 303.046 172.862C303.046 180.652 299.711 188.257 293.967 193.45C299.711 194.934 304.714 198.087 308.605 202.539C308.976 202.91 308.976 203.466 308.79 204.023C308.235 205.135 306.752 206.805 303.046 207.732C301.193 208.289 298.97 208.66 296.746 209.031C293.967 209.587 289.705 210.329 288.964 210.885C288.778 211.256 288.593 211.627 288.778 211.998C288.964 212.369 288.964 212.926 288.778 213.297C288.408 213.668 287.852 214.039 287.296 213.853C283.961 213.853 280.996 216.821 280.996 220.345C280.996 223.869 283.961 226.837 287.481 226.837C289.705 226.837 291.928 225.724 293.04 223.684C293.226 223.313 293.596 223.127 293.967 222.942C297.673 222.385 301.564 221.458 301.935 221.458C303.232 221.087 306.567 218.676 308.42 217.006C308.976 216.45 309.902 216.635 310.273 217.192C310.829 217.748 310.829 218.676 310.273 219.047C308.235 221.087 303.232 225.909 302.49 226.466C302.305 226.651 301.564 226.837 300.082 227.764C297.858 228.877 291.373 232.03 290.076 233.143C290.076 233.514 290.076 233.885 290.076 234.07C290.076 234.07 290.446 234.256 291.373 234.256C293.967 234.07 303.602 229.99 305.455 229.062C305.455 229.062 305.64 229.062 305.826 228.692C306.382 228.321 307.308 228.321 307.679 228.877C308.235 229.433 308.235 230.175 307.679 230.732L304.714 233.885C305.085 234.441 305.826 234.998 306.382 234.998C306.567 234.998 307.123 235.183 308.049 234.441C308.605 234.07 309.346 234.07 309.902 234.441C310.458 234.998 310.458 235.74 310.088 236.296C304.714 244.272 296.19 248.723 287.111 248.723ZM261.169 215.337C261.54 215.337 261.91 215.522 262.096 215.708C262.466 216.079 262.652 216.45 262.466 217.006C262.281 218.49 262.096 219.788 262.096 220.901C262.096 234.812 273.399 245.941 287.111 245.941C293.967 245.941 300.637 242.974 305.27 238.151C303.046 237.409 301.749 235.183 301.564 234.812C301.379 234.627 301.379 234.256 301.379 234.07C297.673 235.554 293.226 237.224 291.002 237.409C289.52 237.409 288.223 237.224 287.481 236.296C286.555 235.183 286.555 233.885 286.74 232.958C286.925 231.659 287.852 230.546 298.414 225.724C298.784 225.538 298.97 225.353 299.34 225.353C298.043 225.538 296.376 225.909 294.523 226.28C292.855 228.877 290.076 230.361 286.925 230.361C281.922 230.361 277.661 226.28 277.661 221.087C277.661 216.45 280.996 212.74 285.443 211.998C285.443 211.256 285.814 210.514 286.184 209.958C287.111 208.66 289.705 208.103 295.634 206.99C297.858 206.619 300.082 206.248 301.749 205.692C303.602 205.135 304.714 204.579 305.27 204.023C301.193 199.756 296.005 196.974 290.076 196.232C289.52 196.232 288.964 195.676 288.964 195.119C288.778 194.563 288.964 194.007 289.52 193.636C296.005 188.999 299.896 181.394 299.896 173.418C299.896 159.507 288.593 148.378 274.881 148.378C268.581 148.378 262.466 150.789 257.834 155.056C257.649 156.539 257.278 158.394 256.722 160.249C256.166 161.918 255.425 163.217 254.684 164.515C253.387 166.926 252.646 168.596 253.387 169.338C254.684 170.821 262.096 175.458 267.099 178.426C266.172 176.942 265.616 175.273 265.616 173.604C265.616 168.596 269.693 164.33 274.881 164.33C279.884 164.33 284.146 168.41 284.146 173.604C284.146 178.797 280.07 182.878 274.881 182.878C274.511 182.878 274.14 182.878 273.769 182.878C274.14 183.805 274.14 184.918 273.955 185.845C274.511 186.031 274.881 186.402 275.252 186.587C276.549 187.7 276.734 188.813 276.549 189.555C276.178 191.224 274.14 191.966 273.399 192.152C273.028 192.152 272.658 192.337 272.472 192.337C272.472 193.45 271.731 195.676 268.952 196.789C268.211 197.16 267.469 197.345 266.913 197.345L266.358 198.273C263.763 201.611 259.687 201.055 255.796 200.313C252.09 199.571 241.898 195.49 239.119 193.45L238.934 193.265L220.775 198.458L215.586 227.764L260.613 215.708C260.799 215.337 260.984 215.337 261.169 215.337ZM275.067 166.741C271.546 166.741 268.581 169.709 268.581 173.233C268.581 176.757 271.546 179.725 275.067 179.725C278.587 179.725 281.552 176.757 281.552 173.233C281.552 169.709 278.772 166.741 275.067 166.741Z" fill="#333333"/>
<path d="M260.428 200.498C258.946 200.498 257.463 200.313 255.981 199.942C252.275 199.2 242.084 195.119 239.304 193.079C236.895 191.41 236.154 187.7 236.895 181.579C237.451 177.684 243.01 165.813 245.419 162.289C247.642 159.136 250.792 153.571 250.978 153.571C251.719 152.088 253.201 149.491 254.869 149.12C255.425 148.934 255.981 148.934 256.537 149.305C258.76 150.604 258.946 154.87 257.093 159.878C256.537 161.547 255.795 162.845 255.054 164.144C253.757 166.555 253.016 168.224 253.757 168.966C255.61 171.007 269.137 179.539 271.731 180.095C272.843 180.466 273.584 181.023 273.955 181.95C274.881 183.805 273.955 186.216 273.769 186.402C273.399 187.144 272.657 187.514 271.916 187.144C271.175 186.773 270.805 186.031 271.175 185.289C271.36 184.732 271.546 183.619 271.36 183.063C271.36 182.877 271.175 182.877 270.805 182.692C267.654 181.765 253.572 173.047 251.534 170.636C249.495 168.41 250.978 165.628 252.46 162.66C253.201 161.362 253.757 160.063 254.313 158.579C255.61 155.055 255.425 152.83 255.054 151.902C254.498 152.459 253.757 153.571 253.201 154.684C253.016 155.055 249.866 160.434 247.642 163.773C245.234 167.112 240.045 178.611 239.489 181.765C238.563 187.7 239.675 189.74 240.601 190.482C242.825 191.966 252.831 196.047 256.166 196.789C260.428 197.716 262.651 197.345 263.763 195.861C264.319 195.305 265.06 195.119 265.802 195.676C266.357 196.232 266.543 196.974 265.987 197.716C264.875 199.942 262.651 200.498 260.428 200.498Z" fill="#333333"/>
<path d="M265.986 196.974C265.06 196.974 264.319 196.789 263.578 196.603C263.022 196.418 262.466 196.418 261.725 196.232C259.13 196.047 251.904 193.265 250.977 192.894C250.236 192.523 249.866 191.781 250.236 191.039C250.607 190.297 251.348 189.926 252.089 190.297C254.127 191.039 260.057 193.265 262.095 193.45C262.836 193.45 263.578 193.636 264.133 193.821C265.431 194.192 266.357 194.377 267.839 193.636C269.692 192.708 269.878 191.595 269.878 191.595C269.878 190.853 270.619 190.297 271.36 190.297C272.101 190.297 272.657 190.853 272.657 191.595C272.657 192.708 271.916 194.934 269.136 196.232C267.839 196.789 266.913 196.974 265.986 196.974Z" fill="#333333"/>
<path d="M269.323 191.966C261.911 191.966 255.24 188.627 255.055 188.442C254.313 188.071 254.128 187.329 254.499 186.587C254.869 185.845 255.611 185.66 256.352 186.031C256.352 186.031 265.431 190.482 273.028 188.998C273.214 188.998 273.584 188.813 273.955 188.627L273.77 188.442C272.843 187.7 270.62 187.144 268.396 186.402C265.431 185.66 262.281 184.732 259.316 183.063C258.575 182.692 258.39 181.765 258.761 181.208C259.131 180.466 260.058 180.281 260.614 180.652C263.022 182.136 266.172 183.063 268.952 183.805C271.731 184.547 273.955 185.289 275.437 186.402C276.734 187.515 276.92 188.627 276.734 189.369C276.364 191.039 274.326 191.781 273.584 191.966C272.287 191.966 270.805 191.966 269.323 191.966Z" fill="#333333"/>
<path d="M273.028 148.192C272.287 148.192 271.546 147.45 271.546 146.709C271.546 145.039 271.175 141.886 270.249 140.588C270.063 140.217 269.137 139.289 269.322 138.176C269.508 137.064 270.619 136.507 271.361 135.951C271.916 135.58 272.472 135.394 273.028 134.838C272.843 134.467 271.731 133.539 270.619 132.983C269.878 132.612 269.693 131.87 270.063 131.128C270.434 130.386 271.175 130.201 271.916 130.572C272.843 130.943 275.437 132.427 275.808 134.467C275.993 135.394 275.622 136.136 275.066 136.693C274.325 137.435 273.584 137.805 272.843 138.176C272.658 138.176 272.472 138.362 272.287 138.547C274.325 140.959 274.325 145.967 274.325 146.523C274.325 147.636 273.769 148.192 273.028 148.192Z" fill="#333333"/>
<path d="M249.866 159.507C248.939 159.321 248.383 158.765 248.569 158.023C248.569 157.837 251.719 134.467 260.242 113.507C268.951 91.8061 287.296 89.5804 288.037 89.3949C288.408 89.3949 288.593 89.3949 288.778 89.5804C316.943 104.604 330.655 84.3869 331.396 83.4595C331.767 82.9031 332.323 82.7176 332.879 82.9031C333.99 83.0885 360.303 88.282 366.047 91.6207C372.347 95.3303 383.279 124.636 383.65 127.789C383.835 131.128 383.65 132.241 383.65 132.612C383.65 132.797 383.465 132.983 383.279 133.168C373.088 145.039 354.003 147.636 347.517 147.636C344.367 147.636 343.441 147.08 343.07 146.523C341.588 144.668 338.993 136.136 339.735 132.056C339.92 131.314 339.735 131.128 339.735 130.943C339.549 130.757 338.623 130.757 338.252 130.757C337.511 130.943 336.77 130.572 336.585 129.83C336.399 129.088 336.77 128.346 337.511 128.16C337.696 128.16 340.105 127.604 341.588 128.902C342.144 129.459 342.885 130.572 342.514 132.612C341.958 135.765 343.996 142.999 345.108 144.668C348.073 145.596 370.123 144.112 380.871 131.685C380.871 131.314 380.871 130.201 380.871 128.16C380.5 124.451 369.382 96.6287 364.564 93.8464C360.303 91.4352 341.217 87.1691 333.064 85.6853C330.099 89.5804 314.905 106.274 287.852 92.1771C285.072 92.5481 270.248 95.8867 262.651 114.435C254.313 135.209 251.348 158.023 251.163 158.394C251.163 158.95 250.607 159.507 249.866 159.507Z" fill="#333333"/>
<path d="M306.753 238.336C306.382 238.336 306.197 238.336 306.011 238.336C303.417 237.78 302.12 235.183 301.935 234.998C301.75 234.812 301.75 234.441 301.75 234.256C298.044 235.74 293.597 237.409 291.373 237.595C289.891 237.595 288.594 237.409 287.852 236.482C286.926 235.369 286.926 234.07 287.111 233.143C287.296 231.845 288.223 230.732 298.785 225.909C299.155 225.724 299.341 225.538 299.711 225.538C294.708 226.651 288.408 227.579 286.555 226.28C285.629 225.724 285.073 224.796 284.888 223.869C284.517 222.014 285.629 220.345 286.185 219.788C286.741 219.046 288.408 218.49 295.079 217.192C296.561 216.821 298.044 216.635 298.414 216.45C298.785 216.264 299.526 215.708 300.267 214.966C295.264 215.522 288.964 215.893 287.667 215.337C286.741 214.78 285.999 214.038 285.814 213.111C285.629 211.998 285.814 210.885 286.555 209.772C287.482 208.474 290.076 207.918 296.005 206.805C298.229 206.434 300.452 206.063 302.12 205.506C305.641 204.579 306.197 203.095 306.197 203.095C306.197 202.353 306.938 201.797 307.679 201.982C308.42 201.982 308.976 202.724 308.976 203.651C308.976 204.022 308.42 206.99 302.861 208.288C301.008 208.845 298.785 209.216 296.561 209.587C293.782 210.143 289.52 210.885 288.779 211.442C288.594 211.813 288.408 212.184 288.593 212.369C288.593 212.555 288.779 212.74 288.964 212.926C290.076 213.111 297.488 212.555 302.491 211.998C303.047 211.998 303.973 211.442 304.158 211.071C304.714 210.514 305.456 210.7 306.011 211.256C306.567 211.813 306.567 212.555 306.011 213.111C304.9 214.409 301.008 218.675 298.97 219.232C298.414 219.417 296.932 219.603 295.264 219.974C293.041 220.345 288.964 221.272 287.852 221.643C287.482 222.2 287.111 222.942 287.296 223.312C287.296 223.498 287.296 223.683 287.667 223.869C288.779 224.425 294.894 223.683 301.564 222.014C302.861 221.643 306.197 219.232 308.05 217.563C308.606 217.006 309.532 217.192 309.903 217.748C310.459 218.304 310.459 219.232 309.903 219.603C307.864 221.643 302.861 226.466 302.12 227.022C301.935 227.208 301.194 227.393 299.711 228.32C297.488 229.433 291.002 232.587 289.705 233.699C289.705 234.07 289.705 234.441 289.705 234.627C289.705 234.627 290.076 234.812 291.002 234.812C293.597 234.627 303.232 230.546 305.085 229.619C305.085 229.619 305.27 229.433 305.456 229.433L310.088 224.425C310.644 223.869 311.385 223.869 311.941 224.24C312.497 224.796 312.497 225.538 312.126 226.095C311.385 227.022 308.976 229.804 307.308 231.288L304.529 234.441C304.9 234.998 305.641 235.554 306.197 235.554C306.382 235.554 306.938 235.74 307.864 234.998C308.606 234.441 309.532 233.699 310.644 232.772C313.423 230.732 318.612 226.837 318.797 224.982C318.797 224.425 318.982 223.312 318.982 222.2C319.723 213.482 320.279 210.7 321.02 209.587C321.391 209.03 322.132 208.845 325.282 207.361C333.991 203.466 354.374 194.377 374.571 177.313C374.942 176.942 375.498 176.942 375.868 177.128C375.868 177.128 376.795 177.313 377.536 176.942C378.277 176.571 378.833 175.829 379.018 174.531C380.315 169.894 379.574 149.12 376.609 135.951C376.424 135.209 376.98 134.467 377.721 134.282C378.462 134.096 379.204 134.653 379.389 135.394C382.539 149.12 383.095 170.45 381.798 175.458C381.242 177.499 380.315 178.982 378.833 179.724C377.721 180.281 376.609 180.281 375.868 180.281C355.486 197.345 335.103 206.434 326.394 210.329C324.912 211.071 323.429 211.627 323.059 211.813C322.503 213.111 321.947 219.788 321.576 222.756C321.391 223.869 321.391 224.982 321.391 225.538C321.02 228.32 317.314 231.288 312.126 235.183C311.014 235.925 310.088 236.667 309.347 237.224C308.606 237.965 307.494 238.336 306.753 238.336Z" fill="#333333"/>
<path d="M311.385 198.458C311.2 198.458 311.014 198.458 310.829 198.458C308.606 197.716 304.529 196.603 302.861 196.974C300.267 197.716 299.155 198.273 299.155 198.273C298.414 198.644 297.673 198.273 297.302 197.716C296.932 196.974 297.302 196.232 297.858 195.861C297.858 195.861 298.97 195.305 301.935 194.378C304.529 193.636 308.976 194.934 310.829 195.49C328.247 179.539 347.147 161.362 348.444 158.209C347.703 154.87 346.221 147.08 346.221 147.08L349 146.523C349 146.523 350.668 154.685 351.409 157.838C351.965 160.435 338.809 173.975 312.312 198.087C311.941 198.273 311.756 198.458 311.385 198.458Z" fill="#333333"/>
<path d="M275.067 182.506C274.696 182.506 274.511 182.321 274.14 182.136C273.585 181.579 273.399 180.837 273.955 180.095C275.067 178.797 274.326 172.305 273.029 166.926C272.843 166.184 273.214 165.442 273.955 165.257C274.696 165.071 275.438 165.442 275.623 166.184C276.364 169.152 278.402 178.797 275.993 181.765C275.993 182.321 275.623 182.506 275.067 182.506Z" fill="#333333"/>
<path d="M308.419 265.602C290.446 265.602 276.919 262.634 275.437 261.707C271.731 259.666 273.769 249.094 274.695 244.642C274.881 243.901 275.622 243.344 276.363 243.53C277.104 243.715 277.66 244.457 277.475 245.199C275.807 252.433 275.807 258.739 276.734 259.295C277.104 259.481 334.546 273.578 373.829 243.901C373.829 243.901 379.203 240.005 378.647 235.554C378.462 233.699 376.609 228.135 374.385 221.828C370.679 210.699 365.491 195.49 364.564 186.587C364.564 185.845 365.12 185.103 365.861 185.103C366.603 185.103 367.344 185.659 367.344 186.401C368.27 194.934 373.273 210.143 376.979 221.086C379.388 228.135 381.056 233.143 381.426 235.368C382.167 241.489 375.682 246.126 375.497 246.312C354.744 261.521 328.802 265.602 308.419 265.602Z" fill="#333333"/>
<path d="M288.223 91.9917C288.038 91.9917 287.852 91.9917 287.667 91.8062C286.926 91.4352 286.74 90.6933 287.111 89.9514L290.261 83.4595C290.446 83.0886 290.817 82.7176 291.373 82.7176C291.929 82.7176 292.299 82.9031 292.67 83.274C292.67 83.274 297.673 88.8385 311.385 86.6127C321.947 84.9434 324.912 80.3063 326.023 78.4515C326.579 77.5241 327.32 76.4112 328.618 76.7822C328.988 76.9677 330.285 77.3386 333.991 83.4595C334.362 84.2015 334.176 84.9434 333.435 85.3143C332.694 85.6853 331.953 85.4998 331.582 84.7579C330.471 82.9031 329.173 80.8628 328.247 79.9354C326.765 82.3466 323.244 87.3546 311.756 89.2094C300.638 91.0642 294.523 88.0966 291.929 86.2417L289.52 91.2497C289.149 91.8062 288.779 91.9917 288.223 91.9917Z" fill="#333333"/>
<path d="M325.838 82.1613C325.653 82.1613 325.468 82.1613 325.282 81.9758C316.388 78.0807 311.941 59.5326 311.756 58.6052C311.57 57.8633 312.126 57.1213 312.867 56.9359C313.609 56.7504 314.35 57.3068 314.535 58.0487C315.647 63.0567 320.279 76.7823 326.579 79.3791C327.321 79.75 327.691 80.4919 327.321 81.2339C326.765 81.7903 326.209 82.1613 325.838 82.1613Z" fill="#333333"/>
<path d="M324.356 38.5732C320.65 41.7264 316.203 43.7667 316.203 43.7667C316.203 43.7667 314.35 51.7424 313.608 56.1939C313.608 56.1939 313.423 59.9036 314.164 62.3148C314.164 62.3148 323.614 56.0085 324.356 41.3555V38.5732Z" fill="#333333"/>
<path d="M284.146 4.2592C284.146 4.2592 266.913 10.5656 262.652 11.493C258.39 12.4204 258.76 14.2752 261.725 15.9445C261.725 15.9445 257.093 20.5815 255.054 25.2186C253.016 30.0411 250.051 34.1217 253.016 36.3474C255.796 38.5732 258.946 37.6458 258.946 37.6458C258.946 37.6458 256.722 41.5409 260.613 42.4683C264.505 43.3957 281.922 40.9845 289.89 35.42C289.89 35.42 284.887 40.2425 289.89 40.2425C294.893 40.428 302.305 38.7587 307.493 31.5249C307.493 31.5249 302.861 38.7587 306.196 39.5006C309.532 40.2425 315.832 32.2668 315.832 32.2668C315.832 32.2668 313.238 38.5732 315.832 37.8313C318.426 37.0893 324.17 30.412 323.429 23.5492C322.688 16.5009 322.502 8.71074 313.979 5.00112C305.27 1.47698 297.487 -0.563313 296.19 0.549574C294.893 1.66246 295.079 3.51727 295.079 3.51727C295.079 3.51727 285.628 -0.934275 283.034 0.178611C280.255 1.2915 284.146 4.2592 284.146 4.2592Z" fill="#333333"/>
<path d="M305.64 45.6217C305.27 45.6217 304.714 45.4362 304.529 45.0652C304.158 44.5088 304.158 43.5814 304.899 43.2104C307.493 41.3556 314.905 35.7912 316.573 32.8235C316.943 32.0815 317.87 31.8961 318.426 32.267C319.167 32.638 319.352 33.5654 318.982 34.1218C316.758 38.3879 307.493 44.8797 306.567 45.4362C306.196 45.4362 306.011 45.6217 305.64 45.6217Z" fill="#333333"/>
<path d="M284.146 70.2904C283.405 70.2904 281.552 69.9194 280.625 66.2098C279.699 62.8711 277.846 52.2987 277.846 51.9277C277.846 51.5568 277.846 51.1858 278.031 51.0003C278.957 49.5165 281.922 47.1052 287.111 49.1455C287.481 49.331 287.852 49.702 288.037 50.2584L290.631 64.7259C290.816 65.2824 291.187 66.5807 290.631 67.8791C290.446 68.4356 289.89 69.1775 288.593 69.5484C286.369 70.2904 284.516 70.4758 284.516 70.4758C284.516 70.2904 284.331 70.2904 284.146 70.2904ZM280.625 52.1132C280.996 54.5245 282.478 62.8711 283.219 65.6533C283.59 66.9517 283.96 67.5081 284.146 67.6936C284.702 67.6936 285.999 67.5081 287.666 66.9517C287.852 66.9517 288.037 66.7662 288.037 66.7662C288.222 66.5807 288.037 66.0243 287.852 65.6533C287.852 65.4678 287.852 65.4678 287.666 65.2824L285.258 51.5568C282.663 50.6294 281.181 51.5568 280.625 52.1132Z" fill="#333333"/>
<path d="M302.305 56.0083C302.305 56.0083 296.932 53.7825 293.226 56.0083C289.52 58.4195 292.114 64.3549 295.82 63.984C299.526 63.4275 302.676 61.7582 306.197 62.8711C309.532 63.984 312.497 59.3469 302.305 56.0083Z" fill="#AE64E8"/>
<path d="M265.987 61.3875C265.987 61.3875 270.434 57.6779 274.696 58.7908C278.958 59.9037 278.402 66.3955 274.696 67.1374C272.843 67.5084 270.99 67.5084 269.323 67.6939L265.987 61.3875Z" fill="#AE64E8"/>
<path d="M292.114 59.718C287.481 59.718 283.59 45.8069 283.59 45.6214C282.849 42.2828 285.628 40.2425 287.111 39.686C293.411 37.2748 299.711 37.8312 302.861 38.3877C304.899 38.7586 306.567 40.4279 306.938 42.6537C307.493 47.4762 306.382 53.4116 305.455 56.0084C304.343 58.6051 300.082 59.718 292.114 59.718ZM297.117 40.6134C294.523 40.6134 291.373 40.9844 288.037 42.2828C288.037 42.2828 285.628 43.2102 286.184 45.065C287.111 48.9601 290.446 56.7503 291.928 56.9358C301.749 56.9358 302.49 54.8955 302.49 54.8955C303.417 52.4842 304.529 46.9198 303.973 43.0247C303.787 42.0973 303.046 41.3554 302.12 41.1699C301.193 40.7989 299.34 40.6134 297.117 40.6134Z" fill="#333333"/>
<path d="M295.263 53.2261C294.522 53.2261 293.781 52.6696 293.781 51.7422V50.6293C293.411 50.6293 293.225 50.8148 292.855 50.8148C292.299 51.0003 291.558 50.6293 291.372 50.2584C291.002 49.7019 290.446 48.96 292.855 44.323C293.225 43.5811 293.966 43.3956 294.708 43.7665C295.449 44.1375 295.634 44.8794 295.263 45.6213C294.893 46.3633 294.522 46.9197 294.337 47.6616H294.522C294.893 47.4762 295.449 47.4762 295.819 47.8471C296.19 48.0326 296.375 48.589 296.375 48.96V51.9277C296.746 52.4841 296.005 53.2261 295.263 53.2261Z" fill="#333333"/>
<path d="M284.887 84.7579C283.961 84.7579 283.405 84.7579 282.849 84.5724C278.031 84.0159 275.066 79.3789 272.472 75.1129C269.693 70.6613 265.246 62.1292 265.06 61.7582C264.69 61.0163 264.875 60.2744 265.616 59.9034C266.357 59.5324 267.099 59.7179 267.469 60.4599C267.469 60.4599 272.102 69.1775 274.881 73.629C277.66 78.0806 279.884 81.2337 283.219 81.7902C286.925 82.3466 298.97 80.6773 301.749 78.8225C304.343 77.1532 311.57 60.6453 312.311 55.8228C313.052 51.1858 314.905 43.5811 314.905 43.2101C315.09 42.8392 315.276 42.4682 315.646 42.2827C315.646 42.2827 320.093 40.2424 323.614 37.2747C326.208 35.0489 327.691 33.0087 327.691 31.3393C327.691 30.4119 327.505 28.7426 326.764 28.0007C326.208 27.6297 325.467 27.4442 324.355 27.8152C323.614 28.0007 322.873 27.6297 322.688 26.8878C322.502 26.1459 322.873 25.4039 323.614 25.2184C326.208 24.4765 327.691 25.2184 328.432 25.9604C330.47 27.6297 330.47 30.9684 330.285 31.5248C330.099 34.1215 328.432 36.7183 325.096 39.315C322.132 41.9117 318.611 43.7666 317.129 44.323C316.758 46.3633 315.276 52.2987 314.72 56.0083C313.979 60.8308 306.752 78.266 303.046 80.8628C300.081 83.274 290.261 84.7579 284.887 84.7579Z" fill="#333333"/>
<path d="M266.172 62.6855C261.725 62.6855 258.019 49.3309 258.019 49.1454C257.278 45.9922 260.057 43.9519 261.54 43.3955C267.654 40.9842 273.584 41.5407 276.549 42.0971C278.587 42.4681 280.254 44.1374 280.44 46.1777C280.996 50.8147 279.884 56.3792 278.957 58.9759C278.031 61.3872 273.954 62.6855 266.172 62.6855ZM270.99 44.3229C268.395 44.3229 265.431 44.6939 262.466 45.8068C262.466 45.8068 260.242 46.7342 260.613 48.4035C261.54 52.1131 264.69 59.3469 266.172 59.7178C275.437 59.7178 276.178 57.863 276.363 57.863C277.29 55.4518 278.216 50.2583 277.66 46.5487C277.475 45.6213 276.919 44.8793 275.993 44.6939C274.696 44.5084 273.028 44.3229 270.99 44.3229Z" fill="#333333"/>
<path d="M269.137 56.3795C268.396 56.3795 267.654 55.8231 267.654 54.8957V53.9683C267.469 53.9683 267.099 54.1537 266.913 54.1537C266.357 54.3392 265.801 53.9683 265.431 53.5973C265.06 53.0409 264.504 52.2989 266.913 47.8474C267.284 47.1055 268.025 46.92 268.766 47.2909C269.507 47.6619 269.693 48.4038 269.322 49.1458C268.951 49.7022 268.766 50.2586 268.581 50.8151C268.951 50.6296 269.507 50.6296 269.878 51.0006C270.249 51.186 270.434 51.7425 270.434 52.1135V54.8957C270.619 55.6376 269.878 56.3795 269.137 56.3795Z" fill="#333333"/>
<path d="M290.632 73.8146C292.114 72.3308 293.226 71.2179 294.338 70.105C294.894 69.5486 295.45 68.9921 295.82 68.2502C296.376 67.6937 296.747 66.9518 297.488 66.0244C298.414 67.8792 297.858 70.476 296.376 71.9598C295.635 72.7017 294.708 73.2582 293.782 73.6291C292.855 74.0001 291.744 74.1856 290.632 73.8146Z" fill="#333333"/>
<path d="M308.976 455.535C307.679 455.535 306.382 455.535 305.27 455.349C298.414 454.607 291.558 451.825 289.89 449.043C286.926 444.22 283.22 406.382 283.034 399.705C282.849 397.479 282.293 393.955 281.552 389.689C279.514 378.931 276.549 362.794 276.364 339.424C275.993 306.223 281.181 262.449 281.181 261.893C281.181 261.151 281.923 260.594 282.664 260.594C283.405 260.594 283.961 261.336 283.961 262.078C283.961 262.449 278.773 306.223 279.143 339.238C279.328 362.423 282.293 378.56 284.331 389.133C285.258 393.77 285.814 397.108 285.814 399.52C286.184 408.237 289.89 443.664 292.299 447.559C293.226 449.043 298.599 451.825 305.641 452.567C310.644 453.124 319.723 452.938 326.208 446.075C326.394 445.89 326.764 445.704 326.95 445.704C326.95 445.704 329.544 444.962 330.1 439.212L330.285 437.358C331.026 429.567 332.879 411.019 332.509 407.681C332.509 406.939 333.064 406.197 333.806 406.197C334.547 406.197 335.288 406.753 335.288 407.495C335.659 410.648 334.362 424.559 333.064 437.729L332.879 439.583C332.323 446.075 329.173 447.93 328.061 448.487C322.317 454.236 314.535 455.535 308.976 455.535Z" fill="#333333"/>
<path d="M362.712 457.204C353.262 457.204 349.556 452.196 346.962 444.22C346.035 441.438 343.626 435.317 340.291 427.527C331.397 406.011 316.758 370.028 314.35 351.48C313.052 341.464 311.941 302.327 311.941 298.247C311.941 296.392 307.494 294.722 305.455 294.166C304.714 293.981 304.158 293.239 304.344 292.497C304.529 291.755 305.27 291.198 306.011 291.384C306.938 291.569 314.72 293.424 314.72 298.061C314.72 302.142 315.647 341.093 317.129 350.923C319.538 368.915 334.176 404.898 342.885 426.229C346.035 434.204 348.629 440.325 349.556 443.107C352.706 452.752 356.968 456.647 372.718 452.752C389.765 448.486 391.804 441.809 391.433 435.317C391.248 429.938 387.171 411.019 384.021 395.624C382.353 388.205 381.056 381.713 380.5 378.003C378.462 366.504 377.906 361.31 378.462 349.439C378.647 344.988 379.574 338.311 380.5 330.335C382.168 317.166 384.206 300.658 384.021 288.602C383.65 268.941 379.389 251.691 373.274 245.755C372.718 245.199 372.718 244.272 373.274 243.715C373.83 243.159 374.756 243.159 375.312 243.715C381.983 250.207 386.43 267.828 386.801 288.416C386.986 300.658 384.948 317.166 383.28 330.52C382.353 338.311 381.427 344.988 381.242 349.254C380.686 360.939 381.056 365.947 383.095 377.262C383.836 380.786 385.133 387.278 386.615 394.882C389.951 410.277 393.842 429.382 394.212 434.946C394.583 445.333 388.283 451.639 373.274 455.164C369.197 456.647 365.677 457.204 362.712 457.204Z" fill="#333333"/>
<path d="M364.38 483.356C364.38 483.356 364.009 495.042 356.227 502.276C348.444 509.324 341.032 512.106 341.032 516.743C341.032 521.38 342.329 523.049 347.147 524.533C351.779 525.832 373.274 525.275 379.759 516.372C380.5 515.259 381.612 513.961 382.724 511.92C384.762 508.025 383.65 500.421 387.171 502.09C390.506 503.759 387.912 507.84 392.915 504.316C397.918 500.792 404.589 494.3 403.662 487.066C402.736 479.647 395.88 473.526 392.915 473.897C390.321 474.268 388.283 478.905 388.839 483.913C389.58 488.921 388.839 491.332 384.762 486.881C380.686 482.429 375.127 481.873 372.347 481.131C369.753 480.76 364.75 480.389 364.38 483.356Z" fill="#333333"/>
<path d="M372.533 482.8C371.792 482.8 371.236 482.243 371.236 481.502C370.68 472.228 362.342 456.647 362.342 456.462C361.971 455.72 362.156 454.978 362.897 454.607C363.639 454.236 364.38 454.421 364.75 455.163C365.121 455.905 373.459 471.486 374.015 481.316C374.015 482.058 373.459 482.8 372.533 482.8Z" fill="#333333"/>
<path d="M391.247 476.308C390.877 476.308 390.321 476.123 390.136 475.752C386.985 471.486 383.28 452.567 382.909 450.341C382.724 449.599 383.28 448.857 384.021 448.672C384.762 448.486 385.503 449.043 385.688 449.785C386.8 455.534 390.136 470.929 392.359 474.083C392.73 474.639 392.73 475.566 392.174 476.123C391.803 476.308 391.618 476.308 391.247 476.308Z" fill="#333333"/>
<path d="M354.744 534.178C347.703 534.178 340.291 533.065 338.253 530.654C336.956 529.17 336.585 527.686 336.77 526.017C337.141 522.678 340.476 520.453 340.662 520.267C341.217 519.896 342.144 519.896 342.515 520.638C342.885 521.195 342.885 522.122 342.144 522.493C341.403 523.049 339.735 524.533 339.55 526.388C339.364 527.316 339.735 528.057 340.476 528.985C341.588 530.283 347.703 531.767 356.968 531.396C362.156 531.211 379.574 530.098 386.615 520.824C387.356 517.671 388.468 513.775 390.321 513.033C390.877 512.848 391.618 512.848 392.174 513.219C393.471 513.961 397.733 513.219 402.921 506.171C406.442 501.348 407.924 497.453 407.368 494.671C406.998 492.816 405.701 491.332 403.477 490.219C402.736 489.848 402.551 488.921 402.921 488.365C403.292 487.623 404.218 487.437 404.774 487.808C407.739 489.477 409.407 491.518 410.148 494.114C411.074 497.824 409.407 502.461 405.33 508.025C399.215 516.372 394.027 517.114 391.433 516.001C390.877 516.929 389.95 519.34 389.395 521.937C389.395 522.122 389.209 522.308 389.209 522.493C381.427 532.88 362.712 534.178 357.153 534.364C356.226 534.178 355.485 534.178 354.744 534.178Z" fill="#333333"/>
<path d="M287.852 478.534C287.852 478.534 283.59 489.477 273.77 493.558C264.134 497.639 256.166 497.639 254.684 501.905C253.016 506.356 253.758 508.396 257.649 511.179C261.54 513.961 281.923 520.824 291.002 514.703C292.114 513.961 293.596 513.033 295.264 511.55C298.599 508.582 300.082 501.163 302.676 503.945C305.27 506.727 301.379 509.695 307.308 508.025C313.238 506.356 321.761 502.647 323.244 495.413C324.911 488.179 320.65 480.018 317.685 479.461C315.091 478.905 311.57 482.615 310.458 487.623C309.347 492.631 307.864 494.485 305.641 489.106C303.417 483.542 298.229 481.131 296.005 479.461C293.782 477.978 289.149 475.752 287.852 478.534Z" fill="#333333"/>
<path d="M296.191 480.945C296.006 480.945 296.006 480.945 295.82 480.945C295.079 480.76 294.709 480.018 294.894 479.276C297.488 470.373 295.079 452.938 295.079 452.752C294.894 452.01 295.45 451.268 296.191 451.268C296.932 451.083 297.673 451.639 297.673 452.381C297.859 453.123 300.267 470.558 297.488 480.203C297.303 480.389 296.747 480.945 296.191 480.945Z" fill="#333333"/>
<path d="M315.832 481.131C315.276 481.131 314.72 480.76 314.535 480.203C313.053 475.195 316.018 456.091 316.388 453.865C316.573 453.123 317.129 452.567 318.056 452.752C318.797 452.938 319.353 453.68 319.168 454.422C318.241 460.171 316.018 475.752 317.315 479.461C317.5 480.203 317.129 480.945 316.388 481.131C316.203 481.131 316.018 481.131 315.832 481.131Z" fill="#333333"/>
<path d="M282.849 527.13C274.696 527.13 266.543 524.719 263.393 523.791C256.167 521.38 248.199 517.485 247.087 514.146C246.346 512.292 246.531 510.622 247.272 509.138C248.755 506.171 252.646 505.058 252.831 505.058C253.572 504.872 254.314 505.243 254.499 505.985C254.684 506.727 254.314 507.469 253.572 507.655C252.831 507.84 250.608 508.767 249.867 510.251C249.496 510.993 249.496 511.921 249.867 513.033C250.422 514.517 255.796 518.041 264.505 521.009C269.508 522.678 286.185 527.501 296.005 521.195C297.858 518.412 300.267 515.259 302.12 515.074C302.676 515.074 303.417 515.259 303.788 515.816C304.714 516.929 308.976 517.67 316.203 512.848C321.206 509.509 323.8 506.356 324.356 503.388C324.541 501.534 323.985 499.679 322.132 497.824C321.576 497.268 321.762 496.34 322.318 495.784C322.873 495.227 323.8 495.413 324.356 495.969C326.579 498.38 327.506 501.163 327.135 503.759C326.579 507.655 323.615 511.364 317.87 515.074C309.347 520.824 304.158 519.711 302.12 517.856C301.194 518.412 299.526 520.638 298.229 522.678C298.044 522.864 298.044 523.049 297.858 523.049C293.411 526.203 288.038 527.13 282.849 527.13Z" fill="#333333"/>
<path d="M232.078 91.8062L105.15 62.8712C96.07 60.8309 87.1757 66.3953 85.1375 75.4839L22.3219 352.222C20.2837 361.31 25.8426 370.213 34.9221 372.254L161.85 401.189C170.93 403.229 179.824 397.664 181.862 388.576L244.678 111.838C246.716 102.75 240.972 93.8465 232.078 91.8062ZM230.966 126.677L175.933 368.544C173.895 377.633 164.815 383.197 155.921 381.157L45.2987 355.931C36.2192 353.891 30.6603 344.802 32.6985 335.899L87.5463 94.032C89.5846 84.9434 98.6641 79.379 107.558 81.4193L218.18 106.645C227.26 108.685 233.004 117.588 230.966 126.677Z" fill="#AE64E8"/>
<path d="M165.556 403.044C164.259 403.044 162.962 402.858 161.479 402.673L34.5511 373.738C24.7304 371.512 18.6156 361.681 20.8392 352.036L83.6547 75.2986C85.8783 65.4681 95.699 59.3472 105.334 61.573L232.263 90.3226C237.08 91.4355 240.972 94.2177 243.566 98.2983C246.16 102.379 246.901 107.201 245.975 112.024L183.159 388.762C181.306 397.294 173.709 403.044 165.556 403.044ZM101.443 63.7988C94.4019 63.7988 88.1019 68.6213 86.4342 75.8551L23.6186 352.593C22.6921 356.673 23.4333 360.754 25.6569 364.278C27.8804 367.802 31.2158 370.214 35.2923 371.141L162.221 400.076C170.559 401.931 178.712 396.737 180.565 388.391L243.38 111.467C244.307 107.387 243.566 103.306 241.342 99.7821C239.119 96.258 235.783 93.8467 231.707 92.9193L104.779 64.1698C103.667 63.9843 102.555 63.7988 101.443 63.7988ZM159.626 383.197C158.329 383.197 157.032 383.012 155.55 382.826L44.9277 357.601C35.107 355.375 28.9922 345.545 31.2158 335.9L86.0636 93.6613C88.2871 83.8308 98.1079 77.7099 107.743 79.9356L218.365 105.161C228.186 107.387 234.301 117.217 232.077 126.862L177.415 368.915C175.377 377.447 167.965 383.197 159.626 383.197ZM103.852 82.3469C96.8108 82.3469 90.5107 87.1694 88.843 94.4032L33.9952 336.27C33.0687 340.351 33.8099 344.432 36.0335 347.956C38.2571 351.48 41.5924 353.891 45.6689 354.819L156.291 380.044C164.629 381.899 172.782 376.705 174.635 368.359L229.483 126.306C230.41 122.225 229.669 118.145 227.445 114.621C225.221 111.096 221.886 108.685 217.81 107.758L107.373 82.7179C106.076 82.5324 104.964 82.3469 103.852 82.3469Z" fill="#333333"/>
<path d="M205.024 241.675C204.839 241.675 204.839 241.675 204.653 241.675L177.044 235.369C172.227 234.256 168.335 231.474 165.741 227.393C163.147 223.313 162.406 218.49 163.332 213.668L174.45 165.072C175.562 160.249 178.341 156.354 182.418 153.757C186.494 151.16 191.312 150.419 196.13 151.346L223.739 157.652C224.48 157.838 225.036 158.58 224.851 159.322C224.666 160.064 223.924 160.62 223.183 160.434L195.574 154.128C191.497 153.201 187.421 153.943 183.9 156.168C180.38 158.394 177.971 161.733 177.044 165.813L165.926 214.409C165 218.49 165.741 222.571 167.965 226.095C170.188 229.619 173.524 232.03 177.6 232.958L205.209 239.264C205.951 239.449 206.506 240.191 206.321 240.933C206.321 241.304 205.765 241.675 205.024 241.675Z" fill="#333333"/>
<path d="M183.715 336.27C183.529 336.27 183.529 336.27 183.344 336.27L155.735 329.964C145.914 327.738 139.799 317.908 142.023 308.263L153.141 259.667C154.252 254.844 157.032 250.949 161.108 248.352C165.185 245.756 170.003 245.014 174.82 245.941L202.429 252.247C203.171 252.433 203.727 253.175 203.541 253.917C203.356 254.659 202.615 255.215 201.874 255.03L174.264 248.723C170.188 247.796 166.111 248.538 162.591 250.764C159.07 252.989 156.661 256.328 155.735 260.409L144.617 309.005C142.764 317.351 147.952 325.513 156.291 327.367L183.9 333.674C184.641 333.859 185.197 334.601 185.012 335.343C184.826 335.899 184.27 336.27 183.715 336.27Z" fill="#333333"/>
<path d="M116.823 373.737C116.638 373.737 116.638 373.737 116.452 373.737C115.711 373.552 115.155 372.81 115.341 372.068L120.344 350.181C122.567 340.351 132.388 334.23 142.023 336.456L180.936 345.359C181.677 345.544 182.233 346.286 182.047 347.028C181.862 347.77 181.121 348.327 180.38 348.141L141.467 339.238C133.129 337.383 124.976 342.577 123.123 350.923L118.12 372.81C118.12 373.367 117.564 373.737 116.823 373.737Z" fill="#333333"/>
<path d="M88.1023 367.246C87.7317 367.246 87.3611 367.06 87.1758 366.875C86.6199 366.318 86.6199 365.576 86.9905 364.834C88.6582 362.98 89.77 360.568 90.3259 358.157L101.444 309.561C102.37 305.481 101.629 301.4 99.4054 297.876C97.1818 294.352 93.8465 291.94 89.77 291.013L47.7076 281.368C46.9664 281.183 46.04 280.997 45.1135 280.997C44.3723 280.997 43.8164 280.255 43.8164 279.513C43.8164 278.771 44.5576 278.215 45.2988 278.215C46.2253 278.215 47.337 278.4 48.2635 278.586L90.3259 288.231C95.1436 289.344 99.0348 292.126 101.629 296.207C104.223 300.287 104.964 305.11 104.038 309.932L92.92 358.528C92.1788 361.496 90.8818 364.093 88.8435 366.504C88.8435 367.06 88.4729 367.246 88.1023 367.246Z" fill="#333333"/>
<path d="M187.05 125.193C185.753 125.193 184.456 125.008 182.974 124.822L140.911 115.177C131.091 112.951 124.976 103.121 127.2 93.4759L128.867 86.4276C129.052 85.6857 129.794 85.1293 130.535 85.3148C131.276 85.5002 131.832 86.2422 131.647 86.9841L129.979 94.0324C128.126 102.379 133.314 110.54 141.653 112.395L183.715 122.04C192.053 123.895 200.206 118.701 202.059 110.355L203.727 103.306C203.912 102.564 204.653 102.008 205.395 102.194C206.136 102.379 206.692 103.121 206.506 103.863L204.839 110.911C202.986 119.443 195.389 125.193 187.05 125.193Z" fill="#333333"/>
<path d="M85.1367 75.4839C87.175 66.3953 96.2545 60.8309 105.149 62.8712L232.077 91.8063C241.156 93.8466 246.715 102.935 244.677 111.838L181.862 388.576C179.823 397.665 170.744 403.229 161.85 401.189C180.009 401.374 192.794 390.431 194.832 381.528L257.648 104.79C259.686 95.7014 254.127 86.7983 245.048 84.758L118.12 55.8229C109.04 53.7826 90.8809 54.1536 86.0632 72.3307L85.1367 75.4839Z" fill="#AE64E8"/>
<path d="M165.556 403.044C164.259 403.044 162.962 402.858 161.479 402.673C160.738 402.487 160.367 401.931 160.367 401.189C160.367 400.447 160.923 400.076 161.85 399.891C165.37 399.891 169.262 399.334 173.153 398.221C176.859 396.181 179.638 392.657 180.565 388.205L243.38 111.467C244.307 107.387 243.566 103.306 241.342 99.7821C239.119 96.258 235.783 93.8467 231.707 92.9193L104.778 64.1697C97.5519 62.5004 90.3253 66.21 87.3606 72.8874L86.2488 76.0405C86.0635 76.7825 85.3223 77.1534 84.5811 76.9679C83.8399 76.7825 83.4693 76.0405 83.6546 75.2986C83.8399 74.1857 84.3958 72.8874 84.7664 71.9599C89.5841 53.4118 108.114 52.2989 118.305 54.5247L245.233 83.2743C255.054 85.5001 261.169 95.3306 258.945 104.976L196.13 381.713C194.277 389.504 185.753 397.85 173.338 401.189C170.929 402.302 168.335 403.044 165.556 403.044ZM101.443 61.0166C102.74 61.0166 104.037 61.202 105.52 61.3875L232.263 90.3226C237.08 91.4355 240.972 94.2177 243.566 98.2983C246.16 102.379 246.901 107.201 245.975 112.024L183.159 388.762C182.603 391.173 181.491 393.584 180.194 395.439C186.68 392.286 192.053 387.463 193.536 380.971L256.351 104.419C258.204 96.0725 253.016 87.9113 244.677 86.0565L117.749 57.1215C110.523 55.4521 98.849 55.6376 91.993 63.6133C94.7724 61.944 98.1078 61.0166 101.443 61.0166Z" fill="#333333"/>
<path d="M185.752 92.7339C185.567 92.7339 185.382 92.7339 185.196 92.7339L157.217 86.4275C155.734 86.0566 154.808 84.5727 155.178 83.0889C155.549 81.605 157.031 80.6776 158.514 81.0486L186.494 87.355C187.976 87.7259 188.902 89.2098 188.532 90.6936C188.161 91.8065 187.049 92.7339 185.752 92.7339Z" fill="white"/>
<path d="M185.753 94.0321C185.382 94.0321 185.197 94.0321 184.826 93.8466L156.846 87.5403C155.735 87.3548 154.808 86.6129 154.252 85.6855C153.696 84.7581 153.511 83.6452 153.696 82.5323C153.882 81.4194 154.623 80.492 155.549 79.9356C156.476 79.3791 157.588 79.1936 158.699 79.3791L186.679 85.6855C187.791 85.871 188.717 86.6129 189.273 87.5403C189.829 88.4677 190.015 89.5806 189.829 90.6935C189.459 92.7338 187.791 94.0321 185.753 94.0321ZM157.773 82.1613C157.588 82.1613 157.217 82.1613 157.032 82.3468C156.661 82.5323 156.476 82.9033 156.476 83.2742C156.476 83.6452 156.476 84.0162 156.661 84.3871C156.846 84.7581 157.217 84.9436 157.588 84.9436L185.567 91.2499C186.309 91.4354 187.05 90.8789 187.235 90.137C187.235 89.7661 187.235 89.3951 187.05 89.0241C186.865 88.6532 186.494 88.4677 186.123 88.4677L158.144 82.3468C157.958 82.3468 157.958 82.1613 157.773 82.1613Z" fill="#333333"/>
<path d="M147.396 80.8632C147.396 82.5325 146.099 83.8309 144.432 83.8309C142.764 83.8309 141.467 82.5325 141.467 80.8632C141.467 79.1939 142.764 77.8955 144.432 77.8955C146.099 77.8955 147.396 79.1939 147.396 80.8632Z" fill="white"/>
<path d="M144.432 85.1293C142.023 85.1293 140.17 83.2745 140.17 80.8632C140.17 78.452 142.023 76.5972 144.432 76.5972C146.841 76.5972 148.694 78.452 148.694 80.8632C148.879 83.2745 146.841 85.1293 144.432 85.1293ZM144.432 79.3794C143.505 79.3794 142.949 80.1213 142.949 80.8632C142.949 81.7906 143.691 82.3471 144.432 82.3471C145.358 82.3471 145.914 81.6052 145.914 80.8632C146.099 79.9358 145.358 79.3794 144.432 79.3794Z" fill="#333333"/>
<path d="M121.641 279.328L14.5393 255.03C5.45974 252.989 -0.0991563 243.901 1.93911 234.998L28.9924 115.919C31.0307 106.83 40.1102 101.266 49.0045 103.306L156.106 127.604C165.185 129.645 170.744 138.733 168.706 147.636L141.653 266.715C139.615 275.804 130.535 281.368 121.641 279.328Z" fill="#AE64E8"/>
<path d="M125.346 281.183C124.049 281.183 122.567 280.997 121.27 280.812L14.1683 256.514C4.34758 254.288 -1.76721 244.457 0.456352 234.812L27.5097 115.734C28.6214 110.911 31.4009 107.016 35.4774 104.419C39.5539 101.823 44.3717 101.081 49.1894 102.008L156.291 126.121C166.112 128.346 172.226 138.177 170.003 147.822L142.949 266.901C141.838 271.723 139.058 275.618 134.982 278.215C132.017 280.255 128.682 281.183 125.346 281.183ZM121.826 278.03C125.902 278.957 129.979 278.215 133.499 275.989C137.02 273.763 139.429 270.425 140.355 266.344L167.409 147.265C169.262 138.919 164.073 130.758 155.735 128.903L48.6335 104.419C44.5569 103.492 40.4804 104.234 36.9598 106.46C33.4392 108.685 31.0303 112.024 30.1038 116.105L3.2358 235.183C1.38284 243.53 6.57114 251.691 14.9095 253.546L121.826 278.03Z" fill="#333333"/>
<path d="M94.5869 219.603L64.3836 212.74L57.3423 222.941L36.0332 218.119L83.6544 148.563L104.964 153.386L117.934 236.667L96.6252 231.844L94.5869 219.603ZM91.9928 203.466L88.1016 177.869L73.6484 199.2L91.9928 203.466Z" fill="white"/>
<path d="M117.749 237.966C117.563 237.966 117.563 237.966 117.378 237.966L96.0689 233.143C95.513 232.958 95.1424 232.587 94.9571 232.03L93.1042 220.901L64.7538 214.409L58.2684 223.683C57.8978 224.24 57.3419 224.425 56.786 224.24L35.4769 219.417C35.1063 219.232 34.7357 219.046 34.5504 218.49C34.3651 218.119 34.3651 217.563 34.7357 217.192L82.357 147.636C82.7276 147.08 83.2834 146.894 83.8393 147.08L105.148 151.902C105.704 152.088 106.075 152.459 106.26 153.015L119.231 236.296C119.231 236.667 119.231 237.224 118.86 237.595C118.49 237.966 118.119 237.966 117.749 237.966ZM97.7366 230.546L116.081 234.812L103.666 154.499L84.2099 150.048L38.2564 217.192L56.6007 221.458L63.0861 212.184C63.4567 211.627 64.0126 211.442 64.5685 211.627L94.7718 218.49C95.3277 218.675 95.6983 219.046 95.8836 219.603L97.7366 230.546ZM91.9924 204.764C91.8071 204.764 91.8071 204.764 91.6218 204.764L73.0921 200.498C72.7215 200.313 72.3509 200.127 72.1656 199.571C71.9803 199.2 71.9804 198.644 72.3509 198.273L86.8041 176.942C87.1747 176.386 87.7306 176.2 88.2865 176.386C88.8423 176.571 89.2129 176.942 89.3982 177.499L93.2895 203.095C93.2895 203.466 93.2895 204.022 92.9189 204.393C92.7336 204.579 92.363 204.764 91.9924 204.764ZM75.8716 198.273L90.3247 201.611L87.1747 181.579L75.8716 198.273Z" fill="#333333"/>
</svg>
